<?xml version="1.0" encoding="utf-8"?>
<!-- Generator: Adobe Illustrator 18.0.0, SVG Export Plug-In . SVG Version: 6.00 Build 0)  -->
<!DOCTYPE svg PUBLIC "-//W3C//DTD SVG 1.1//EN" "http://www.w3.org/Graphics/SVG/1.1/DTD/svg11.dtd">
<svg version="1.1" id="Layer_1" xmlns="http://www.w3.org/2000/svg" xmlns:xlink="http://www.w3.org/1999/xlink" x="0px" y="0px"
	 viewBox="0 0 527.7 538.3" enable-background="new 0 0 527.7 538.3" xml:space="preserve">
<g>
	<g>
		<path fill="#DD272F" d="M521.4,535.7c0-0.6-1.7-59.9-38-118.3c-21.3-34.3-50.2-61.6-85.9-81.2c-44.7-24.5-100.3-37-165.2-37
			c-61.9,0-133.2,11.4-212.1,33.7l-2.3,0.7v-2.4c0-1.1,0.2-1.2,3.5-3.1c42.6-24.1,82.9-55.5,116.7-91c29.5-30.9,53.4-64.3,71.1-99.3
			c21.7-43,34.3-88.7,37.3-136l0.1-1.8l1.8,0.2c0.7,0.1,18,1.6,44,11.7c24,9.3,60.1,28,96.1,64.2c40.4,40.6,72.4,94.5,95.1,160.2
			c28.4,82,42.3,182.7,41.4,299.4L521.4,535.7z M232.3,295.6c65.5,0,121.7,12.6,167,37.4c36.3,19.9,65.6,47.7,87.2,82.5
			c20.8,33.5,30.4,67.3,34.8,90.4C519.8,402.3,506,312,480.2,237.5c-22.5-65.2-54.3-118.6-94.3-158.8C324.1,16.5,261.3,5.5,249.9,4
			c-3.3,47.1-15.9,92.7-37.5,135.5c-17.9,35.3-42,69-71.7,100.2c-31.5,33-68.7,62.6-108,86.1C106.5,305.7,173.6,295.6,232.3,295.6z"
			/>
	</g>
	<g opacity="0.5">
		<path fill="#DD272F" d="M522.1,533.2c0-0.6-3.9-56.9-40.1-112.5c-21.2-32.6-49.2-58.6-83.2-77.2c-42.6-23.3-94.8-35.1-155.2-35.1
			c-66.6,0-144.2,14.4-230.6,42.8l-2.3,0.7l-0.1-2.4c0-1.1,0.1-1.2,3.3-3.2c41.5-25.8,80.6-58.9,112.9-95.7
			c28.2-32.1,50.7-66.4,67-102.1c20-43.8,30.6-90.1,31.7-137.5l0-1.8l1.8,0.1c0.7,0,18,0.8,44.5,9.9c24.3,8.3,61.2,25.5,98.6,60.2
			c42,38.9,76.2,91.5,101.6,156.2c31.7,80.8,49.7,180.8,53.6,297.4L522.1,533.2z M243.6,304.8c61,0,113.9,12,157,35.6
			c34.6,18.9,63,45.3,84.5,78.5c20.3,31.2,30.5,62.7,35.6,84.7c-5.7-103.6-23.2-193.2-52-266.6c-25.2-64.2-59.1-116.3-100.7-154.8
			c-64.3-59.6-127.5-68-139-69c-1.3,47.2-12.1,93.3-32,137c-16.4,36-39.1,70.7-67.5,103c-30.1,34.3-66,65.4-104.4,90.4
			C106.7,317.8,180.1,304.8,243.6,304.8z"/>
	</g>
	<g opacity="0.25">
		<path fill="#DD272F" d="M522.8,538c-0.1-0.5-5.6-54.5-41.7-107.8C460,399,432.7,374.2,400,356.3c-41-22.3-90.6-33.6-147.6-33.6
			c-70.2,0-152.4,17.2-244.6,51l-2.2,0.8l-0.2-2.4c-0.1-1.1,0.1-1.2,3.2-3.3c40.6-27.2,78.5-61.7,109.5-99.5
			c27.1-33,48.4-68.1,63.4-104.4c18.4-44.5,27.5-91.1,26.9-138.5l0-1.8l1.8,0c0.7,0,18.1,0.2,44.8,8.4c24.6,7.5,62,23.4,100.6,56.8
			c43.3,37.4,79.3,88.8,106.9,152.6c34.5,79.6,55.9,179,63.8,295.4L522.8,538z M252.3,319.1c57.6,0,107.9,11.5,149.4,34.1
			c33.3,18.1,61,43.4,82.4,75.2c19.9,29.4,30.6,59.1,36.3,80.1c-9.3-103.3-29.9-192.2-61.2-264.7c-27.4-63.3-63.1-114.2-106-151.3
			C286.9,35.2,223.5,29,212,28.3c0.3,47.2-8.8,93.7-27.2,138c-15.2,36.6-36.7,72-63.9,105.3c-28.9,35.3-63.8,67.6-101.2,94
			C106.9,334.7,185.1,319.1,252.3,319.1z"/>
	</g>
	<g opacity="3.000000e-02">
		<path fill="#DD272F" d="M524.1,538.3c-0.1-0.5-7.6-51.7-43.5-102.1c-21-29.6-47.6-53.1-78.9-70c-39.2-21.1-86-31.8-139.2-31.8
			c-74.1,0-161.6,20.8-260,61.9l-2.2,0.9L0,394.7c-0.1-1.1,0-1.2,3.1-3.5c39.4-29,75.8-65,105.2-104.1c25.6-34.1,45.4-70.1,58.9-107
			c16.5-45.2,23.6-92.2,21-139.5l-0.1-1.8l1.8-0.1c0,0,0.4,0,1.2,0c5.5,0,25.4,0.7,53.5,9.1c36.2,11,70.6,30.1,102.1,56.9
			c43,36.6,79.5,86.6,108.4,148.7c35.7,76.7,60.2,172.3,72.6,284.3L524.1,538.3z M262.5,330.7c53.8,0,101.3,10.9,141,32.3
			c31.8,17.2,58.8,41.1,80.1,71.2c19.4,27.3,30.6,54.7,36.8,74.5c-13.2-99-36.3-184.2-68.7-253.7c-28.7-61.7-64.9-111.3-107.5-147.5
			c-31.2-26.5-65.1-45.4-100.8-56.2c-26.4-8-45.5-8.9-51.7-9c2.3,47.2-4.8,93.9-21.3,139c-13.6,37.2-33.6,73.5-59.4,107.9
			c-27.4,36.5-60.8,70.3-97.1,98.2C107.7,349.8,191.2,330.7,262.5,330.7z"/>
	</g>
</g>
</svg>
